<?xml version="1.0"?>
<svg xmlns="http://www.w3.org/2000/svg" viewBox="0 0 50 50">
    <path fill='#28ccb7' d="M 14 8 C 8.4886661 8 4 12.488666 4 18 C 4 19.029078 4.2671243 19.978611 4.5566406 20.910156 C 2.4179598 22.555101 1 25.098766 1 28 C 1 32.958516 5.0414839 37 10 37 C 10.341405 37 10.663011 36.940014 10.992188 36.902344 C 12.455334 39.893791 15.454343 42 19 42 C 22.354324 42 25.219653 40.110647 26.765625 37.378906 C 27.639305 37.68572 28.51959 38 29.5 38 C 32.567991 38 35.204807 36.324355 36.697266 33.878906 C 37.126029 33.932752 37.549782 34 38 34 C 44.063407 34 49 29.063407 49 23 C 49 16.936593 44.063407 12 38 12 C 36.741697 12 35.582363 12.343548 34.455078 12.734375 C 32.923292 10.503979 30.403877 9 27.5 9 C 25.154836 9 23.156141 10.09722 21.619141 11.638672 C 19.784399 9.4444033 17.077835 8 14 8 z M 14 10 C 16.788529 10 19.227572 11.419299 20.662109 13.574219 L 21.447266 14.755859 L 22.296875 13.619141 C 23.483652 12.029536 25.361362 11 27.5 11 C 29.938512 11 32.045389 12.336086 33.160156 14.3125 L 33.603516 15.097656 L 34.429688 14.740234 C 35.52575 14.265604 36.72948 14 38 14 C 42.982593 14 47 18.017407 47 23 C 47 27.982593 42.982593 32 38 32 C 37.45774 32 36.922736 31.94382 36.390625 31.847656 L 35.650391 31.714844 L 35.316406 32.386719 C 34.251811 34.526313 32.059036 36 29.5 36 C 28.506472 36 27.570456 35.770822 26.722656 35.369141 L 25.800781 34.931641 L 25.382812 35.863281 C 24.287496 38.299749 21.852764 40 19 40 C 16.005205 40 13.471739 38.125881 12.466797 35.494141 L 12.166016 34.708984 L 11.341797 34.869141 C 10.903158 34.954039 10.455298 35 10 35 C 6.1225161 35 3 31.877484 3 28 C 3 25.537787 4.2654759 23.389127 6.1796875 22.138672 L 6.8632812 21.693359 L 6.5625 20.935547 C 6.201778 20.021242 6 19.03618 6 18 C 6 13.569334 9.5693339 10 14 10 z M 16.115234 20.001953 C 16.071234 20.001953 16.039062 20.036031 16.039062 20.082031 L 16.039062 25.917969 C 16.039062 25.963969 16.070234 26 16.115234 26 L 16.822266 26 C 16.866266 26 16.898438 25.963969 16.898438 25.917969 L 16.898438 20.082031 C 16.898438 20.037031 16.867266 20.001953 16.822266 20.001953 L 16.115234 20.001953 z M 28.576172 20.015625 C 28.094172 20.015625 27.714266 20.152875 27.447266 20.421875 C 27.182266 20.688875 27.002109 21.095859 26.912109 21.630859 L 26.861328 21.996094 L 26.257812 21.996094 C 26.257812 21.996094 26.182969 21.993219 26.167969 22.074219 L 26.068359 22.628906 C 26.061359 22.681906 26.08525 22.714844 26.15625 22.714844 L 26.746094 22.714844 L 26.148438 26.052734 C 26.101437 26.320734 26.048281 26.540984 25.988281 26.708984 C 25.930281 26.874984 25.872734 26.997891 25.802734 27.087891 C 25.734734 27.174891 25.669594 27.239344 25.558594 27.277344 C 25.466594 27.307344 25.360141 27.322266 25.244141 27.322266 C 25.180141 27.322266 25.093297 27.311828 25.029297 27.298828 C 24.965297 27.286828 24.933719 27.271953 24.886719 27.251953 C 24.886719 27.251953 24.817063 27.225922 24.789062 27.294922 C 24.767063 27.351922 24.610797 27.784891 24.591797 27.837891 C 24.572797 27.890891 24.598813 27.931359 24.632812 27.943359 C 24.710812 27.971359 24.770953 27.988672 24.876953 28.013672 C 25.025953 28.048672 25.150578 28.050781 25.267578 28.050781 C 25.512578 28.050781 25.736875 28.016219 25.921875 27.949219 C 26.108875 27.881219 26.270063 27.765422 26.414062 27.607422 C 26.569063 27.435422 26.666766 27.254766 26.759766 27.009766 C 26.852766 26.766766 26.930141 26.465281 26.994141 26.113281 L 27.595703 22.714844 L 28.472656 22.714844 C 28.472656 22.714844 28.5475 22.717719 28.5625 22.636719 L 28.660156 22.082031 C 28.667156 22.029031 28.645219 21.996094 28.574219 21.996094 L 27.720703 21.996094 C 27.724703 21.977094 27.780906 21.492938 27.878906 21.210938 C 27.920906 21.089938 27.999406 20.992781 28.066406 20.925781 C 28.131406 20.859781 28.207062 20.812156 28.289062 20.785156 C 28.374063 20.758156 28.469219 20.744141 28.574219 20.744141 C 28.654219 20.744141 28.734922 20.754578 28.794922 20.767578 C 28.876922 20.785578 28.909641 20.794781 28.931641 20.800781 C 29.018641 20.827781 29.028875 20.801766 29.046875 20.759766 L 29.25 20.199219 C 29.273 20.139219 29.222125 20.113469 29.203125 20.105469 C 29.118125 20.079469 29.041453 20.062922 28.939453 20.044922 C 28.836453 20.025922 28.714172 20.015625 28.576172 20.015625 z M 9.5585938 22 L 9.4648438 22.001953 C 8.6008437 22.001953 7.9960938 22.482875 7.9960938 23.171875 L 7.9960938 23.185547 C 7.9960938 23.911547 8.6611562 24.146547 9.2851562 24.310547 L 9.3867188 24.339844 C 9.8407188 24.467844 10.232422 24.579047 10.232422 24.873047 L 10.232422 24.888672 C 10.232422 25.157672 9.9764062 25.357422 9.5664062 25.357422 C 9.4064062 25.357422 8.9005625 25.355156 8.3515625 25.035156 C 8.2855625 24.999156 8.2463125 24.974312 8.1953125 24.945312 C 8.1683125 24.929313 8.1012656 24.903375 8.0722656 24.984375 L 7.8847656 25.462891 C 7.8557656 25.532891 7.8942969 25.546594 7.9042969 25.558594 C 7.9912969 25.616594 8.0799687 25.657125 8.1679688 25.703125 C 8.6369687 25.932125 9.0799688 26 9.5429688 26 C 10.486969 26 11.072266 25.537969 11.072266 24.792969 L 11.072266 24.779297 C 11.072266 24.090297 10.411016 23.839203 9.7910156 23.658203 L 9.7109375 23.634766 C 9.2429375 23.494766 8.8398437 23.373844 8.8398438 23.089844 L 8.8398438 23.076172 C 8.8398438 22.833172 9.0754063 22.654297 9.4414062 22.654297 C 9.8474063 22.654297 10.329625 22.7795 10.640625 22.9375 C 10.640625 22.9375 10.732625 22.991156 10.765625 22.910156 C 10.783625 22.866156 10.940031 22.475594 10.957031 22.433594 C 10.975031 22.388594 10.942156 22.353938 10.910156 22.335938 C 10.554156 22.135937 10.065594 22 9.5585938 22 z M 13.570312 22 C 13.370313 22 13.049469 22.024547 12.855469 22.060547 C 12.855469 22.060547 12.272203 22.165844 12.033203 22.339844 C 12.033203 22.339844 11.980766 22.3695 12.009766 22.4375 L 12.199219 22.908203 C 12.223219 22.969203 12.287109 22.947266 12.287109 22.947266 C 12.287109 22.947266 12.306078 22.941734 12.330078 22.927734 C 12.842078 22.669734 13.492188 22.675781 13.492188 22.675781 C 13.780188 22.675781 14.001391 22.729938 14.150391 22.835938 C 14.295391 22.939937 14.369141 23.095781 14.369141 23.425781 L 14.369141 23.529297 C 14.140141 23.498297 13.929688 23.482422 13.929688 23.482422 C 13.821687 23.475422 13.681672 23.470703 13.513672 23.470703 C 13.284672 23.470703 13.064422 23.496828 12.857422 23.548828 C 12.649422 23.600828 12.461781 23.680109 12.300781 23.787109 C 12.138781 23.895109 12.009063 24.032313 11.914062 24.195312 C 11.819062 24.358313 11.771484 24.551625 11.771484 24.765625 C 11.771484 24.984625 11.811578 25.173125 11.892578 25.328125 C 11.973578 25.484125 12.091234 25.615797 12.240234 25.716797 C 12.388234 25.816797 12.571203 25.889594 12.783203 25.933594 C 12.994203 25.976594 13.230234 26 13.490234 26 C 13.764234 26 14.036781 25.9795 14.300781 25.9375 C 14.562781 25.8965 14.883656 25.836406 14.972656 25.816406 C 15.061656 25.797406 15.158203 25.771484 15.158203 25.771484 C 15.224203 25.755484 15.220703 25.691406 15.220703 25.691406 L 15.21875 23.431641 C 15.21875 22.935641 15.076875 22.569797 14.796875 22.341797 C 14.515875 22.115797 14.102313 22 13.570312 22 z M 19.84375 22 C 19.51075 22 19.208891 22.051203 18.962891 22.158203 C 18.717891 22.265203 18.509656 22.41175 18.347656 22.59375 C 18.185656 22.77475 18.064328 22.991328 17.986328 23.236328 C 17.908328 23.479328 17.869141 23.745391 17.869141 24.025391 C 17.869141 24.310391 17.910234 24.575453 17.990234 24.814453 C 18.071234 25.055453 18.201953 25.267359 18.376953 25.443359 C 18.552953 25.620359 18.778828 25.758469 19.048828 25.855469 C 19.316828 25.951469 19.641625 26.002953 20.015625 26.001953 C 20.785625 25.999953 21.192375 25.839906 21.359375 25.753906 C 21.389375 25.737906 21.416812 25.711766 21.382812 25.634766 L 21.207031 25.181641 C 21.181031 25.114641 21.107422 25.138672 21.107422 25.138672 C 20.916422 25.204672 20.644719 25.323266 20.011719 25.322266 C 19.598719 25.321266 19.291609 25.20925 19.099609 25.03125 C 18.902609 24.85025 18.805062 24.583984 18.789062 24.208984 L 21.455078 24.210938 C 21.455078 24.210938 21.525203 24.210484 21.533203 24.146484 C 21.535203 24.119484 21.624125 23.636078 21.453125 23.080078 C 21.386125 22.845078 21.219328 22.609953 21.111328 22.501953 C 20.939328 22.329953 20.772469 22.210531 20.605469 22.144531 C 20.387469 22.057531 20.12875 22 19.84375 22 z M 23.919922 22 L 23.826172 22.001953 C 22.962172 22.001953 22.359375 22.482875 22.359375 23.171875 L 22.359375 23.185547 C 22.359375 23.911547 23.025437 24.146547 23.648438 24.310547 L 23.748047 24.339844 C 24.202047 24.467844 24.59375 24.579047 24.59375 24.873047 L 24.59375 24.888672 C 24.59375 25.157672 24.339687 25.357422 23.929688 25.357422 C 23.769687 25.357422 23.261891 25.355156 22.712891 25.035156 C 22.646891 24.999156 22.608594 24.975312 22.558594 24.945312 C 22.541594 24.935312 22.460594 24.906375 22.433594 24.984375 L 22.246094 25.462891 C 22.217094 25.532891 22.257578 25.546594 22.267578 25.558594 C 22.354578 25.616594 22.441297 25.657125 22.529297 25.703125 C 22.998297 25.932125 23.441297 26 23.904297 26 C 24.848297 26 25.435547 25.537969 25.435547 24.792969 L 25.435547 24.779297 C 25.435547 24.090297 24.772344 23.839203 24.152344 23.658203 L 24.072266 23.634766 C 23.604266 23.494766 23.201172 23.373844 23.201172 23.089844 L 23.201172 23.076172 C 23.201172 22.833172 23.436734 22.654297 23.802734 22.654297 C 24.208734 22.654297 24.690953 22.7795 25.001953 22.9375 C 25.001953 22.9375 25.093953 22.991156 25.126953 22.910156 C 25.144953 22.866156 25.301359 22.475594 25.318359 22.433594 C 25.336359 22.388594 25.305438 22.353938 25.273438 22.335938 C 24.917437 22.135938 24.426922 22 23.919922 22 z M 30.658203 22 C 30.338203 22 30.0535 22.05225 29.8125 22.15625 C 29.5715 22.26025 29.368984 22.404984 29.208984 22.583984 C 29.047984 22.761984 28.928562 22.97675 28.851562 23.21875 C 28.774562 23.45975 28.734375 23.723906 28.734375 24.003906 C 28.734375 24.283906 28.774563 24.546109 28.851562 24.787109 C 28.928563 25.029109 29.047984 25.244828 29.208984 25.423828 C 29.368984 25.602828 29.573453 25.744703 29.814453 25.845703 C 30.055453 25.946703 30.338203 26 30.658203 26 C 30.977203 26 31.259953 25.949656 31.501953 25.847656 C 31.742953 25.745656 31.946422 25.601828 32.107422 25.423828 C 32.267422 25.245828 32.387844 25.032062 32.464844 24.789062 C 32.541844 24.548063 32.580078 24.283906 32.580078 24.003906 C 32.580078 23.723906 32.541844 23.45975 32.464844 23.21875 C 32.387844 22.97575 32.267422 22.761984 32.107422 22.583984 C 31.947422 22.404984 31.742953 22.262203 31.501953 22.158203 C 31.260953 22.053203 30.977203 22 30.658203 22 z M 37.923828 22 C 37.592828 22 37.299875 22.05225 37.046875 22.15625 C 36.794875 22.25925 36.580156 22.403031 36.410156 22.582031 C 36.241156 22.761031 36.113344 22.974797 36.027344 23.216797 C 35.941344 23.457797 35.900391 23.722906 35.900391 24.003906 C 35.900391 24.609906 36.075828 25.099031 36.423828 25.457031 C 36.772828 25.818031 37.295516 26 37.978516 26 C 38.382516 26 38.796703 25.924406 39.095703 25.816406 C 39.095703 25.816406 39.151953 25.789516 39.126953 25.728516 L 38.933594 25.232422 C 38.907594 25.161422 38.832031 25.189453 38.832031 25.189453 C 38.718031 25.230453 38.596797 25.266156 38.466797 25.285156 C 38.335797 25.304156 38.190156 25.314453 38.035156 25.314453 C 37.654156 25.314453 37.351766 25.209953 37.134766 25.001953 C 36.917766 24.793953 36.795875 24.458906 36.796875 24.003906 C 36.797875 23.590906 36.904656 23.279016 37.097656 23.041016 C 37.289656 22.805016 37.583656 22.683594 37.972656 22.683594 C 38.297656 22.683594 38.545687 22.719922 38.804688 22.794922 C 38.804688 22.794922 38.865531 22.819141 38.894531 22.744141 C 38.964531 22.566141 39.015844 22.439141 39.089844 22.244141 C 39.110844 22.188141 39.058062 22.165203 39.039062 22.158203 C 38.937063 22.121203 38.697625 22.061156 38.515625 22.035156 C 38.345625 22.013156 38.144828 22 37.923828 22 z M 41.351562 22 C 41.018563 22 40.717656 22.051203 40.472656 22.158203 C 40.227656 22.265203 40.019422 22.41175 39.857422 22.59375 C 39.695422 22.77475 39.574094 22.991328 39.496094 23.236328 C 39.418094 23.479328 39.380859 23.745391 39.380859 24.025391 C 39.380859 24.310391 39.421953 24.575453 39.501953 24.814453 C 39.582953 25.055453 39.711719 25.267359 39.886719 25.443359 C 40.062719 25.620359 40.288594 25.758469 40.558594 25.855469 C 40.826594 25.951469 41.151391 26.002953 41.525391 26.001953 C 42.295391 25.999953 42.702141 25.839906 42.869141 25.753906 C 42.899141 25.737906 42.926578 25.711766 42.892578 25.634766 L 42.716797 25.181641 C 42.690797 25.114641 42.617188 25.138672 42.617188 25.138672 C 42.426187 25.204672 42.154484 25.323266 41.521484 25.322266 C 41.107484 25.321266 40.801375 25.20925 40.609375 25.03125 C 40.412375 24.85025 40.316781 24.583984 40.300781 24.208984 L 42.966797 24.210938 C 42.966797 24.210938 43.036922 24.210484 43.044922 24.146484 C 43.045922 24.119484 43.133891 23.636078 42.962891 23.080078 C 42.895891 22.845078 42.729094 22.609953 42.621094 22.501953 C 42.449094 22.329953 42.281234 22.210531 42.115234 22.144531 C 41.897234 22.057531 41.637563 22 41.351562 22 z M 35.273438 22.003906 C 34.938437 21.984906 34.752938 22.037375 34.585938 22.109375 C 34.419938 22.180375 34.235766 22.296734 34.134766 22.427734 L 34.134766 22.117188 C 34.134766 22.074188 34.102594 22.039063 34.058594 22.039062 L 33.373047 22.039062 C 33.328047 22.039062 33.298828 22.074187 33.298828 22.117188 L 33.298828 25.923828 C 33.298828 25.966828 33.333906 26 33.378906 26 L 34.078125 26 C 34.123125 26 34.158203 25.966828 34.158203 25.923828 L 34.158203 24.021484 C 34.158203 23.765484 34.189047 23.511563 34.248047 23.351562 C 34.305047 23.193562 34.383469 23.066562 34.480469 22.976562 C 34.577469 22.885562 34.688547 22.823109 34.810547 22.787109 C 34.934547 22.751109 35.071969 22.738281 35.167969 22.738281 C 35.307969 22.738281 35.460937 22.773437 35.460938 22.773438 C 35.512937 22.778437 35.540594 22.747125 35.558594 22.703125 C 35.605594 22.587125 35.735766 22.238922 35.759766 22.169922 C 35.779766 22.111922 35.738703 22.083172 35.720703 22.076172 C 35.675703 22.060172 35.448438 22.014906 35.273438 22.003906 z M 19.779297 22.654297 C 20.129297 22.654297 20.360344 22.782672 20.527344 23.013672 C 20.637344 23.166672 20.685125 23.369656 20.703125 23.597656 L 18.802734 23.597656 C 18.840734 23.362656 18.909578 23.165672 19.017578 23.013672 C 19.181578 22.782672 19.428297 22.654297 19.779297 22.654297 z M 41.289062 22.654297 C 41.639063 22.654297 41.869156 22.782672 42.035156 23.013672 C 42.145156 23.166672 42.193891 23.369656 42.212891 23.597656 L 40.310547 23.597656 C 40.348547 23.362656 40.418344 23.165672 40.527344 23.013672 C 40.690344 22.782672 40.939062 22.654297 41.289062 22.654297 z M 30.658203 22.671875 C 31.008203 22.671875 31.258781 22.782672 31.425781 23.013672 C 31.592781 23.246672 31.677734 23.580906 31.677734 24.003906 C 31.677734 24.426906 31.591828 24.761094 31.423828 24.996094 C 31.257828 25.229094 31.00625 25.34375 30.65625 25.34375 C 30.30625 25.34375 30.057531 25.229094 29.894531 24.996094 C 29.728531 24.760094 29.644531 24.426906 29.644531 24.003906 C 29.644531 23.580906 29.729531 23.247672 29.894531 23.013672 C 30.058531 22.782672 30.308203 22.671875 30.658203 22.671875 z M 13.646484 24.09375 C 14.028484 24.09775 14.371094 24.150391 14.371094 24.150391 L 14.371094 25.273438 C 14.371094 25.273438 14.031391 25.340328 13.650391 25.361328 C 13.108391 25.392328 12.867141 25.21775 12.869141 25.21875 C 12.764141 25.14175 12.750797 25.121313 12.716797 25.070312 C 12.663797 24.994312 12.636719 24.887 12.636719 24.75 C 12.636719 24.533 12.713047 24.376484 12.873047 24.271484 C 12.872047 24.271484 13.103484 24.08775 13.646484 24.09375 z"/>
</svg>
