<svg id="f0382032-d20e-4f19-bc6f-817fa3ccfc5c" data-name="Ebene 1" xmlns="http://www.w3.org/2000/svg" viewBox="0 0 316.19 151.85">
  <defs>
    <style>
      .f505f2de-2a41-45c3-98eb-b2662cf80d4d {
        fill: #fff;
      }
    </style>
  </defs>
  <g>
    <path  class="f505f2de-2a41-45c3-98eb-b2662cf80d4d" d="M252.41,245.3c-43,0-76-36.29-75.38-76.22.63-42,33.89-75.34,76.32-75.3,41.39,0,75.51,34.44,75.38,76C328.6,211.6,294.53,245.31,252.41,245.3Z" transform="translate(-12.55 -93.45)"/>
    <path  class="f505f2de-2a41-45c3-98eb-b2662cf80d4d" d="M12.55,244.67l82-70.83L20.74,94.56c8.21,0,15.27-.14,22.32.13,1.34,0,2.82,1.52,3.89,2.65q28.93,30.73,57.76,61.56c.91,1,1.65,2.11,2.83,3.62,7.43-6.39,14.34-12.31,21.22-18.26,18-15.57,36-31.23,54.14-46.63a14.42,14.42,0,0,1,7.92-3c6.42-.42,12.89-.13,20.84-.13l-92.28,79.89,65.78,70.18c-8.66,0-16.2.17-23.71-.15-1.44-.07-3-1.94-4.17-3.23Q133.09,215.3,109,189.29c-.9-1-1.69-2-2.8-3.39-9.9,8.54-19.32,16.66-28.73,24.79-12.09,10.46-24.11,21-36.33,31.32a11.78,11.78,0,0,1-6.58,2.54C27.74,244.88,20.92,244.67,12.55,244.67Z" transform="translate(-12.55 -93.45)"/>
    <path   class="f505f2de-2a41-45c3-98eb-b2662cf80d4d" d="M147.09,111.15c-.05,10.12-7.55,17.53-17.71,17.5s-17.5-7.41-17.47-17.68a17.18,17.18,0,0,1,17.71-17.52C139.78,93.5,147.15,101,147.09,111.15Z" transform="translate(-12.55 -93.45)"/>
  </g>
</svg>
